# xmcd CD database file
#
# Track frame offsets:
#	180
#	18865
#	40627
#	58463
#	79163
#	99732
#	122389
#	137037
#	152048
#	169196
#	191513
#	208088
#	234419
#
# Disc length: 3365 seconds
#
# Revision: 2
# Processed by: cddbd v1.5.2PL0 Copyright (c) Steve Scherf et al.
# Submitted via: CDex 1.51
#
DISCID=a90d230d
DTITLE=Phil Bates - Naked
DYEAR=1900
DGENRE=
TTITLE0=World's Gone Crazy
TTITLE1=Port In A Storm
TTITLE2=Fine Time
TTITLE3=Writing On The Wall
TTITLE4=Naked
TTITLE5=My Decline And Fall
TTITLE6=Celtic Dawn
TTITLE7=Invisible Again
TTITLE8=Soul Prelude - Secret Place In My Soul
TTITLE9=Life In The Slow Lane
TTITLE10=Don't Wanna Lie Anymore
TTITLE11=Showdown
TTITLE12=The Way The River Flows
EXTD=
EXTT0=
EXTT1=
EXTT2=
EXTT3=
EXTT4=
EXTT5=
EXTT6=
EXTT7=
EXTT8=
EXTT9=
EXTT10=
EXTT11=
EXTT12=
PLAYORDER=
